<mxfile host="app.diagrams.net" agent="Mozilla/5.0 (Windows NT 10.0; Win64; x64) AppleWebKit/537.36 (KHTML, like Gecko) Chrome/131.0.0.0 Safari/537.36 Edg/131.0.0.0" version="25.0.3">
  <diagram name="Página-1" id="Y64hm3pn_sQMrZo3uUq9">
    <mxGraphModel dx="1744" dy="906" grid="1" gridSize="10" guides="1" tooltips="1" connect="1" arrows="1" fold="1" page="1" pageScale="1" pageWidth="827" pageHeight="1169" math="0" shadow="0">
      <root>
        <mxCell id="0" />
        <mxCell id="1" parent="0" />
        <mxCell id="UZ5TqIIMobmf1ziZfsxh-15" value="" style="group;fontSize=13;" vertex="1" connectable="0" parent="1">
          <mxGeometry x="331" y="220" width="165.12" height="710" as="geometry" />
        </mxCell>
        <mxCell id="UZ5TqIIMobmf1ziZfsxh-10" style="edgeStyle=orthogonalEdgeStyle;rounded=0;orthogonalLoop=1;jettySize=auto;html=1;exitX=0.5;exitY=1;exitDx=0;exitDy=0;exitPerimeter=0;entryX=0.5;entryY=0;entryDx=0;entryDy=0;fontSize=13;" edge="1" parent="UZ5TqIIMobmf1ziZfsxh-15" source="UZ5TqIIMobmf1ziZfsxh-2" target="UZ5TqIIMobmf1ziZfsxh-4">
          <mxGeometry relative="1" as="geometry" />
        </mxCell>
        <mxCell id="UZ5TqIIMobmf1ziZfsxh-2" value="INÍCIO" style="strokeWidth=2;html=1;shape=mxgraph.flowchart.start_1;whiteSpace=wrap;fontSize=13;" vertex="1" parent="UZ5TqIIMobmf1ziZfsxh-15">
          <mxGeometry width="165.12000000000003" height="99.06976744186045" as="geometry" />
        </mxCell>
        <mxCell id="UZ5TqIIMobmf1ziZfsxh-3" value="FIM" style="strokeWidth=2;html=1;shape=mxgraph.flowchart.start_1;whiteSpace=wrap;fontSize=13;" vertex="1" parent="UZ5TqIIMobmf1ziZfsxh-15">
          <mxGeometry y="610.9302325581394" width="165.12000000000003" height="99.06976744186045" as="geometry" />
        </mxCell>
        <mxCell id="UZ5TqIIMobmf1ziZfsxh-11" style="edgeStyle=orthogonalEdgeStyle;rounded=0;orthogonalLoop=1;jettySize=auto;html=1;exitX=0.5;exitY=1;exitDx=0;exitDy=0;entryX=0.5;entryY=0;entryDx=0;entryDy=0;fontSize=13;" edge="1" parent="UZ5TqIIMobmf1ziZfsxh-15" source="UZ5TqIIMobmf1ziZfsxh-4" target="UZ5TqIIMobmf1ziZfsxh-5">
          <mxGeometry relative="1" as="geometry" />
        </mxCell>
        <mxCell id="UZ5TqIIMobmf1ziZfsxh-4" value="&lt;div&gt;&lt;br&gt;&lt;/div&gt;&lt;div&gt;&lt;span style=&quot;background-color: initial;&quot;&gt;NOME&lt;/span&gt;&lt;/div&gt;" style="html=1;strokeWidth=2;shape=manualInput;whiteSpace=wrap;rounded=1;size=26;arcSize=11;fillColor=#dae8fc;strokeColor=#6c8ebf;fontSize=13;" vertex="1" parent="UZ5TqIIMobmf1ziZfsxh-15">
          <mxGeometry y="153.5581395348837" width="165.12000000000003" height="99.06976744186045" as="geometry" />
        </mxCell>
        <mxCell id="UZ5TqIIMobmf1ziZfsxh-13" style="edgeStyle=orthogonalEdgeStyle;rounded=0;orthogonalLoop=1;jettySize=auto;html=1;exitX=0.5;exitY=1;exitDx=0;exitDy=0;fontSize=13;" edge="1" parent="UZ5TqIIMobmf1ziZfsxh-15" source="UZ5TqIIMobmf1ziZfsxh-5">
          <mxGeometry relative="1" as="geometry">
            <mxPoint x="82.56000000000002" y="445.8139534883721" as="targetPoint" />
          </mxGeometry>
        </mxCell>
        <mxCell id="UZ5TqIIMobmf1ziZfsxh-5" value="&lt;div&gt;&lt;br&gt;&lt;/div&gt;&lt;div&gt;&lt;span style=&quot;background-color: initial;&quot;&gt;SOBRENOME&lt;/span&gt;&lt;/div&gt;" style="html=1;strokeWidth=2;shape=manualInput;whiteSpace=wrap;rounded=1;size=26;arcSize=11;fillColor=#f8cecc;strokeColor=#b85450;fontSize=13;" vertex="1" parent="UZ5TqIIMobmf1ziZfsxh-15">
          <mxGeometry y="305.4651162790697" width="165.12000000000003" height="99.06976744186045" as="geometry" />
        </mxCell>
        <mxCell id="UZ5TqIIMobmf1ziZfsxh-14" style="edgeStyle=orthogonalEdgeStyle;rounded=0;orthogonalLoop=1;jettySize=auto;html=1;exitX=0.5;exitY=1;exitDx=0;exitDy=0;exitPerimeter=0;fontSize=13;" edge="1" parent="UZ5TqIIMobmf1ziZfsxh-15" source="UZ5TqIIMobmf1ziZfsxh-6">
          <mxGeometry relative="1" as="geometry">
            <mxPoint x="82.56000000000002" y="594.4186046511628" as="targetPoint" />
          </mxGeometry>
        </mxCell>
        <mxCell id="UZ5TqIIMobmf1ziZfsxh-6" value="NOME + SOBRENOME" style="strokeWidth=2;html=1;shape=mxgraph.flowchart.display;whiteSpace=wrap;fillColor=#e1d5e7;strokeColor=#9673a6;fontSize=13;" vertex="1" parent="UZ5TqIIMobmf1ziZfsxh-15">
          <mxGeometry y="459.0232558139534" width="165.12000000000003" height="99.06976744186045" as="geometry" />
        </mxCell>
        <mxCell id="UZ5TqIIMobmf1ziZfsxh-17" value="EX1AULA2" style="text;html=1;align=center;verticalAlign=middle;whiteSpace=wrap;rounded=0;fontSize=31;fontStyle=1" vertex="1" parent="1">
          <mxGeometry x="80" y="60" width="213.33" height="80" as="geometry" />
        </mxCell>
      </root>
    </mxGraphModel>
  </diagram>
</mxfile>
